<svg width="120" height="60" viewBox="0 0 120 60" fill="none" xmlns="http://www.w3.org/2000/svg">
<rect width="120" height="60" rx="10" fill="url(#paint0_linear_1044_7314)"/>
<path d="M55.2805 14.6L54.8165 16.232H52.9605L52.3685 18.344H54.2565L53.7765 19.96H51.9045L51.0565 23H48.9925L49.8405 19.96H47.4885L46.6405 23H44.5765L45.4245 19.96H43.5365L44.0005 18.344H45.8885L46.4805 16.232H44.5765L45.0405 14.6H46.9445L47.9045 11.16H49.9685L49.0085 14.6H51.3605L52.3205 11.16H54.3845L53.4245 14.6H55.2805ZM47.9525 18.344H50.3045L50.8965 16.232H48.5445L47.9525 18.344ZM71.0914 20.488V23H56.3714V21.72C56.3714 20.344 56.654 19.2933 57.2194 18.568C57.7954 17.832 58.462 17.336 59.2194 17.08C59.9767 16.8133 60.9474 16.584 62.1314 16.392C62.4514 16.3493 63.0007 16.28 63.7794 16.184C64.622 16.088 65.278 15.9973 65.7474 15.912C66.2167 15.816 66.606 15.6773 66.9154 15.496C67.2354 15.304 67.3954 15.048 67.3954 14.728C67.3954 14.1627 67.0114 13.752 66.2434 13.496C65.486 13.2293 64.5634 13.1013 63.4754 13.112C62.43 13.1227 61.5394 13.288 60.8034 13.608C60.078 13.9173 59.7154 14.408 59.7154 15.08H56.3714C56.3714 13.96 56.7607 13.0853 57.5394 12.456C58.318 11.816 59.2354 11.384 60.2914 11.16C61.358 10.9253 62.414 10.808 63.4594 10.808C65.358 10.808 67.054 11.064 68.5474 11.576C70.0407 12.088 70.7874 13.144 70.7874 14.744C70.7874 15.5867 70.4727 16.2587 69.8434 16.76C69.214 17.2613 68.4994 17.6187 67.6994 17.832C66.91 18.0347 66.0087 18.2107 64.9954 18.36C64.526 18.4347 64.2594 18.4773 64.1954 18.488C63.4274 18.584 62.67 18.7387 61.9234 18.952C61.1874 19.1547 60.5794 19.3947 60.0994 19.672C59.63 19.9387 59.3954 20.2107 59.3954 20.488H71.0914ZM23.7389 35.896V33.16H37.4349L23.7389 35.896ZM37.4349 33.16V35.912H32.2829V45H28.9549V35.912H23.7389V33.16H37.4349ZM48.0272 40.92H39.3232C39.3872 41.6667 39.6645 42.2853 40.1552 42.776C40.6565 43.256 41.3445 43.496 42.2192 43.496C42.6885 43.496 43.1259 43.416 43.5312 43.256C43.9472 43.096 44.2779 42.8667 44.5232 42.568C44.7792 42.2693 44.9072 41.928 44.9072 41.544H48.0272C48.0272 42.28 47.7925 42.936 47.3232 43.512C46.8645 44.0773 46.1979 44.52 45.3232 44.84C44.4485 45.16 43.4085 45.32 42.2032 45.32C41.0939 45.32 40.0752 45.1227 39.1472 44.728C38.2192 44.3333 37.4885 43.7787 36.9552 43.064C36.4219 42.3387 36.1552 41.512 36.1552 40.584C36.1552 39.6453 36.4219 38.8187 36.9552 38.104C37.4885 37.3787 38.2139 36.824 39.1312 36.44C40.0485 36.0453 41.0725 35.848 42.2032 35.848C43.3552 35.848 44.3685 36.04 45.2432 36.424C46.1179 36.808 46.7952 37.352 47.2752 38.056C47.7659 38.7493 48.0165 39.5653 48.0272 40.504V40.584H48.0432H48.0272V40.92ZM42.2192 37.624C40.7685 37.624 39.8565 38.248 39.4832 39.496H44.7952C44.5072 38.248 43.6485 37.624 42.2192 37.624ZM48.6239 40.68C48.6239 39.784 48.8853 38.9787 49.4079 38.264C49.9306 37.5387 50.6453 36.9733 51.5519 36.568C52.4586 36.1627 53.4613 35.96 54.5599 35.96C56.1386 35.96 57.4026 36.3067 58.3519 37C59.3119 37.6827 59.9413 38.6053 60.2399 39.768H57.1039C56.9759 39.2453 56.6826 38.8187 56.2239 38.488C55.7759 38.1467 55.2266 37.976 54.5759 37.976C53.7226 37.976 53.0453 38.2267 52.5439 38.728C52.0426 39.2187 51.7919 39.8693 51.7919 40.68C51.7919 41.16 51.8986 41.608 52.1119 42.024C52.3253 42.4293 52.6346 42.76 53.0399 43.016C53.4559 43.2613 53.9466 43.384 54.5119 43.384C55.1839 43.384 55.7493 43.2187 56.2079 42.888C56.6773 42.5467 56.9706 42.12 57.0879 41.608H60.2239C60.1173 42.2907 59.8026 42.9253 59.2799 43.512C58.7573 44.088 58.0799 44.5467 57.2479 44.888C56.4266 45.2293 55.5306 45.4 54.5599 45.4C53.4826 45.4 52.4906 45.1973 51.5839 44.792C50.6773 44.376 49.9573 43.8107 49.4239 43.096C48.8906 42.3707 48.6239 41.5653 48.6239 40.68ZM67.8678 35.992C69.0518 35.992 70.0225 36.4187 70.7798 37.272C71.5478 38.1253 71.9318 39.5013 71.9318 41.4V45H68.8118V41.448C68.8118 40.7653 68.7638 40.1893 68.6678 39.72C68.5825 39.2507 68.3745 38.856 68.0438 38.536C67.7131 38.216 67.2118 38.056 66.5398 38.056C65.8358 38.056 65.3078 38.2213 64.9558 38.552C64.6145 38.8827 64.3958 39.288 64.2998 39.768C64.2038 40.2373 64.1558 40.808 64.1558 41.48V45H61.0358V33.16H64.1558V37.352C64.9665 36.4453 66.2038 35.992 67.8678 35.992ZM79.7912 35.992C81.0499 35.992 82.0312 36.408 82.7352 37.24C83.4392 38.072 83.7912 39.4587 83.7912 41.4V45H80.6712V41.448C80.6712 40.7653 80.6232 40.1893 80.5272 39.72C80.4419 39.2507 80.2339 38.856 79.9032 38.536C79.5725 38.216 79.0712 38.056 78.3992 38.056C77.6952 38.056 77.1672 38.216 76.8152 38.536C76.4739 38.8453 76.2552 39.24 76.1592 39.72C76.0632 40.1893 76.0152 40.776 76.0152 41.48V45H72.8952V36.28H76.0152V37.4C76.8472 36.4613 78.1059 35.992 79.7912 35.992ZM90.6266 35.912C91.7466 35.912 92.7546 36.1147 93.6506 36.52C94.5466 36.9253 95.2452 37.4907 95.7466 38.216C96.2586 38.9307 96.5146 39.736 96.5146 40.632C96.5146 41.5173 96.2586 42.3227 95.7466 43.048C95.2452 43.7627 94.5466 44.3227 93.6506 44.728C92.7546 45.1333 91.7466 45.336 90.6266 45.336C89.5492 45.336 88.5412 45.1333 87.6026 44.728C86.6639 44.312 85.9119 43.7467 85.3466 43.032C84.7919 42.3067 84.5146 41.5067 84.5146 40.632C84.5146 39.7467 84.7919 38.9467 85.3466 38.232C85.9119 37.5067 86.6639 36.9413 87.6026 36.536C88.5412 36.12 89.5492 35.912 90.6266 35.912ZM90.6266 43.32C91.3946 43.32 92.0506 43.0907 92.5946 42.632C93.1386 42.1733 93.4106 41.5067 93.4106 40.632C93.4106 39.7467 93.1386 39.0747 92.5946 38.616C92.0506 38.1573 91.3946 37.928 90.6266 37.928C90.1359 37.928 89.6612 38.0293 89.2026 38.232C88.7546 38.424 88.3866 38.7227 88.0986 39.128C87.8106 39.5333 87.6666 40.0347 87.6666 40.632C87.6666 41.2187 87.8106 41.7147 88.0986 42.12C88.3866 42.5253 88.7546 42.8293 89.2026 43.032C89.6612 43.224 90.1359 43.32 90.6266 43.32Z" fill="white"/>
<defs>
<linearGradient id="paint0_linear_1044_7314" x1="0" y1="0" x2="90.5032" y2="84.5767" gradientUnits="userSpaceOnUse">
<stop stop-color="#A7A7A7" stop-opacity="0"/>
<stop offset="1" stop-color="#0A0A0A"/>
</linearGradient>
</defs>
</svg>
