<svg width="120" height="90" viewBox="0 0 120 90" fill="none" xmlns="http://www.w3.org/2000/svg">
<rect width="120" height="90" rx="10" fill="url(#paint0_linear_1044_7315)"/>
<path d="M59.2958 13.4L58.5998 15.848H55.8158L54.9278 19.016H57.7598L57.0398 21.44H54.2318L52.9598 26H49.8638L51.1358 21.44H47.6078L46.3358 26H43.2398L44.5117 21.44H41.6798L42.3758 19.016H45.2078L46.0958 15.848H43.2398L43.9358 13.4H46.7918L48.2318 8.24H51.3278L49.8878 13.4H53.4158L54.8558 8.24H57.9518L56.5118 13.4H59.2958ZM48.3038 19.016H51.8318L52.7198 15.848H49.1918L48.3038 19.016ZM69.6921 8.24V26H64.9641V14.144H60.9561V11.264C62.4921 11.264 63.6281 11.08 64.3641 10.712C65.1161 10.344 65.5721 9.952 65.7321 9.536C65.9081 9.104 65.9961 8.672 65.9961 8.24H69.6921ZM39.8704 41.24C41.3584 41.24 42.6704 41.488 43.8064 41.984C44.9584 42.48 45.8464 43.176 46.4704 44.072C47.1104 44.952 47.4304 45.976 47.4304 47.144V47.24C47.4304 49.176 46.8064 50.664 45.5584 51.704C44.3264 52.728 42.5744 53.24 40.3024 53.24H31.8784V59H26.8864V41.24H39.8704ZM39.1024 49.568C39.9824 49.568 40.6544 49.536 41.1184 49.472C41.5984 49.392 41.9984 49.192 42.3184 48.872C42.6544 48.536 42.8224 48 42.8224 47.264C42.8224 46.512 42.6544 45.968 42.3184 45.632C41.9984 45.28 41.5904 45.064 41.0944 44.984C40.6144 44.904 39.9504 44.864 39.1024 44.864H38.2144C37.8464 44.864 37.2064 44.872 36.2944 44.888C35.3984 44.888 33.9184 44.888 31.8544 44.888V49.568H39.0784H39.1024ZM60.0463 40.856C62.1903 40.856 64.1183 41.264 65.8303 42.08C67.5423 42.88 68.8863 43.992 69.8623 45.416C70.8383 46.824 71.3263 48.416 71.3263 50.192C71.3263 51.952 70.8383 53.536 69.8623 54.944C68.8863 56.352 67.5423 57.464 65.8303 58.28C64.1183 59.08 62.1903 59.48 60.0463 59.48C57.9823 59.48 56.0783 59.08 54.3343 58.28C52.6063 57.464 51.2303 56.352 50.2063 54.944C49.1823 53.52 48.6703 51.936 48.6703 50.192C48.6703 48.432 49.1743 46.84 50.1823 45.416C51.2063 43.992 52.5903 42.88 54.3343 42.08C56.0783 41.264 57.9823 40.856 60.0463 40.856ZM60.0463 55.568C61.0863 55.568 62.0703 55.36 62.9983 54.944C63.9263 54.512 64.6783 53.896 65.2543 53.096C65.8303 52.28 66.1183 51.312 66.1183 50.192C66.1183 49.088 65.8303 48.128 65.2543 47.312C64.6783 46.48 63.9263 45.848 62.9983 45.416C62.0703 44.984 61.0863 44.768 60.0463 44.768C58.9743 44.768 57.9663 44.984 57.0223 45.416C56.0943 45.832 55.3503 46.448 54.7903 47.264C54.2303 48.08 53.9503 49.04 53.9503 50.144C53.9503 51.264 54.2303 52.24 54.7903 53.072C55.3663 53.888 56.1183 54.512 57.0463 54.944C57.9903 55.36 58.9903 55.568 60.0463 55.568ZM86.0657 41.24C87.5537 41.24 88.8657 41.488 90.0017 41.984C91.1537 42.48 92.0417 43.176 92.6657 44.072C93.3057 44.952 93.6257 45.976 93.6257 47.144V47.24C93.6257 49.176 93.0017 50.664 91.7537 51.704C90.5217 52.728 88.7697 53.24 86.4977 53.24H78.0737V59H73.0817V41.24H86.0657ZM85.2977 49.568C86.1777 49.568 86.8497 49.536 87.3137 49.472C87.7937 49.392 88.1937 49.192 88.5137 48.872C88.8497 48.536 89.0177 48 89.0177 47.264C89.0177 46.512 88.8497 45.968 88.5137 45.632C88.1937 45.28 87.7857 45.064 87.2897 44.984C86.8097 44.904 86.1457 44.864 85.2977 44.864H84.4097C84.0417 44.864 83.4017 44.872 82.4897 44.888C81.5937 44.888 80.1137 44.888 78.0497 44.888V49.568H85.2737H85.2977Z" fill="white"/>
<path d="M15.4232 71.844C16.1032 71.844 16.6512 72.064 17.0672 72.504C17.4832 72.944 17.6912 73.536 17.6912 74.28V78H16.3952V74.364C16.3952 73.948 16.2912 73.628 16.0832 73.404C15.8752 73.172 15.5912 73.056 15.2312 73.056C14.8312 73.056 14.5112 73.188 14.2712 73.452C14.0392 73.716 13.9232 74.112 13.9232 74.64V78H12.6272V74.364C12.6272 73.948 12.5272 73.628 12.3272 73.404C12.1352 73.172 11.8592 73.056 11.4992 73.056C11.1072 73.056 10.7872 73.192 10.5392 73.464C10.2912 73.728 10.1672 74.12 10.1672 74.64V78H8.87123V72H10.1672V72.72C10.5512 72.136 11.1232 71.844 11.8832 71.844C12.6512 71.844 13.2192 72.16 13.5872 72.792C13.9872 72.16 14.5992 71.844 15.4232 71.844ZM21.9103 78.156C21.0303 78.156 20.2823 77.852 19.6663 77.244C19.0503 76.636 18.7423 75.888 18.7423 75C18.7423 74.112 19.0503 73.364 19.6663 72.756C20.2823 72.148 21.0303 71.844 21.9103 71.844C22.7983 71.844 23.5463 72.148 24.1543 72.756C24.7703 73.364 25.0783 74.112 25.0783 75C25.0783 75.888 24.7703 76.636 24.1543 77.244C23.5463 77.852 22.7983 78.156 21.9103 78.156ZM20.5783 76.356C20.9383 76.716 21.3823 76.896 21.9103 76.896C22.4383 76.896 22.8823 76.716 23.2423 76.356C23.6023 75.996 23.7823 75.544 23.7823 75C23.7823 74.456 23.6023 74.004 23.2423 73.644C22.8823 73.284 22.4383 73.104 21.9103 73.104C21.3823 73.104 20.9383 73.284 20.5783 73.644C20.2183 74.004 20.0383 74.456 20.0383 75C20.0383 75.544 20.2183 75.996 20.5783 76.356ZM27.297 73.656C27.297 73.856 27.405 74.016 27.621 74.136C27.845 74.248 28.113 74.348 28.425 74.436C28.745 74.516 29.065 74.612 29.385 74.724C29.705 74.836 29.973 75.028 30.189 75.3C30.413 75.564 30.525 75.9 30.525 76.308C30.525 76.884 30.301 77.336 29.853 77.664C29.413 77.992 28.857 78.156 28.185 78.156C27.593 78.156 27.085 78.032 26.661 77.784C26.237 77.536 25.929 77.192 25.737 76.752L26.853 76.104C27.061 76.68 27.505 76.968 28.185 76.968C28.865 76.968 29.205 76.744 29.205 76.296C29.205 76.104 29.093 75.948 28.869 75.828C28.653 75.708 28.385 75.608 28.065 75.528C27.753 75.44 27.437 75.34 27.117 75.228C26.797 75.116 26.525 74.932 26.301 74.676C26.085 74.412 25.977 74.08 25.977 73.68C25.977 73.128 26.185 72.684 26.601 72.348C27.025 72.012 27.549 71.844 28.173 71.844C28.669 71.844 29.109 71.956 29.493 72.18C29.885 72.396 30.185 72.7 30.393 73.092L29.301 73.704C29.093 73.248 28.717 73.02 28.173 73.02C27.925 73.02 27.717 73.076 27.549 73.188C27.381 73.292 27.297 73.448 27.297 73.656ZM34.7778 73.248H33.2898V76.128C33.2898 76.376 33.3458 76.556 33.4578 76.668C33.5698 76.772 33.7338 76.832 33.9498 76.848C34.1738 76.856 34.4498 76.852 34.7778 76.836V78C33.7858 78.12 33.0738 78.036 32.6418 77.748C32.2098 77.452 31.9938 76.912 31.9938 76.128V73.248H30.8898V72H31.9938V70.704L33.2898 70.32V72H34.7778V73.248ZM42.4079 71.844C43.2319 71.844 43.9359 72.152 44.5199 72.768C45.1039 73.376 45.3959 74.12 45.3959 75C45.3959 75.888 45.1039 76.636 44.5199 77.244C43.9359 77.852 43.2319 78.156 42.4079 78.156C41.4959 78.156 40.7959 77.82 40.3079 77.148V80.4H39.0119V72H40.3079V72.864C40.7959 72.184 41.4959 71.844 42.4079 71.844ZM40.8479 76.38C41.2079 76.74 41.6599 76.92 42.2039 76.92C42.7479 76.92 43.1999 76.74 43.5599 76.38C43.9199 76.012 44.0999 75.552 44.0999 75C44.0999 74.448 43.9199 73.992 43.5599 73.632C43.1999 73.264 42.7479 73.08 42.2039 73.08C41.6599 73.08 41.2079 73.264 40.8479 73.632C40.4879 73.992 40.3079 74.448 40.3079 75C40.3079 75.552 40.4879 76.012 40.8479 76.38ZM46.5705 78V69.24H47.8665V78H46.5705ZM54.1232 72H55.4192V78H54.1232V77.136C53.6352 77.816 52.9352 78.156 52.0232 78.156C51.1992 78.156 50.4952 77.852 49.9112 77.244C49.3272 76.628 49.0352 75.88 49.0352 75C49.0352 74.112 49.3272 73.364 49.9112 72.756C50.4952 72.148 51.1992 71.844 52.0232 71.844C52.9352 71.844 53.6352 72.18 54.1232 72.852V72ZM50.8712 76.38C51.2312 76.74 51.6832 76.92 52.2272 76.92C52.7712 76.92 53.2232 76.74 53.5832 76.38C53.9432 76.012 54.1232 75.552 54.1232 75C54.1232 74.448 53.9432 73.992 53.5832 73.632C53.2232 73.264 52.7712 73.08 52.2272 73.08C51.6832 73.08 51.2312 73.264 50.8712 73.632C50.5112 73.992 50.3312 74.448 50.3312 75C50.3312 75.552 50.5112 76.012 50.8712 76.38ZM60.9738 72H62.3538L60.0498 78.192C59.4738 79.744 58.4978 80.48 57.1218 80.4V79.188C57.5298 79.212 57.8578 79.124 58.1058 78.924C58.3538 78.732 58.5578 78.428 58.7178 78.012L58.7778 77.892L56.2338 72H57.6498L59.4378 76.356L60.9738 72ZM63.9498 75.552C64.0458 76.008 64.2658 76.36 64.6098 76.608C64.9538 76.848 65.3738 76.968 65.8698 76.968C66.5578 76.968 67.0738 76.72 67.4178 76.224L68.4858 76.848C67.8938 77.72 67.0178 78.156 65.8578 78.156C64.8818 78.156 64.0938 77.86 63.4938 77.268C62.8938 76.668 62.5938 75.912 62.5938 75C62.5938 74.104 62.8898 73.356 63.4818 72.756C64.0738 72.148 64.8338 71.844 65.7618 71.844C66.6418 71.844 67.3618 72.152 67.9218 72.768C68.4898 73.384 68.7738 74.132 68.7738 75.012C68.7738 75.148 68.7578 75.328 68.7258 75.552H63.9498ZM63.9378 74.496H67.4658C67.3778 74.008 67.1738 73.64 66.8538 73.392C66.5418 73.144 66.1738 73.02 65.7498 73.02C65.2698 73.02 64.8698 73.152 64.5498 73.416C64.2298 73.68 64.0258 74.04 63.9378 74.496ZM74.631 69.6H75.927V78H74.631V77.136C74.143 77.816 73.443 78.156 72.531 78.156C71.707 78.156 71.003 77.852 70.419 77.244C69.835 76.628 69.543 75.88 69.543 75C69.543 74.112 69.835 73.364 70.419 72.756C71.003 72.148 71.707 71.844 72.531 71.844C73.443 71.844 74.143 72.18 74.631 72.852V69.6ZM71.379 76.38C71.739 76.74 72.191 76.92 72.735 76.92C73.279 76.92 73.731 76.74 74.091 76.38C74.451 76.012 74.631 75.552 74.631 75C74.631 74.448 74.451 73.992 74.091 73.632C73.731 73.264 73.279 73.08 72.735 73.08C72.191 73.08 71.739 73.264 71.379 73.632C71.019 73.992 70.839 74.448 70.839 75C70.839 75.552 71.019 76.012 71.379 76.38ZM85.2136 72H86.4856V77.724C86.4856 78.636 86.1856 79.336 85.5856 79.824C84.9856 80.312 84.2576 80.556 83.4016 80.556C82.0176 80.556 81.0696 80.072 80.5576 79.104L81.6736 78.456C81.9856 79.072 82.5696 79.38 83.4256 79.38C83.9856 79.38 84.4216 79.232 84.7336 78.936C85.0536 78.648 85.2136 78.244 85.2136 77.724V76.992C84.7256 77.688 84.0296 78.036 83.1256 78.036C82.2776 78.036 81.5616 77.736 80.9776 77.136C80.3936 76.528 80.1016 75.796 80.1016 74.94C80.1016 74.084 80.3936 73.356 80.9776 72.756C81.5616 72.148 82.2776 71.844 83.1256 71.844C84.0296 71.844 84.7256 72.192 85.2136 72.888V72ZM81.9376 76.284C82.3056 76.644 82.7616 76.824 83.3056 76.824C83.8496 76.824 84.3016 76.644 84.6616 76.284C85.0296 75.924 85.2136 75.476 85.2136 74.94C85.2136 74.404 85.0296 73.956 84.6616 73.596C84.3016 73.236 83.8496 73.056 83.3056 73.056C82.7616 73.056 82.3056 73.236 81.9376 73.596C81.5776 73.956 81.3976 74.404 81.3976 74.94C81.3976 75.476 81.5776 75.924 81.9376 76.284ZM89.0162 75.552C89.1122 76.008 89.3322 76.36 89.6762 76.608C90.0202 76.848 90.4402 76.968 90.9362 76.968C91.6242 76.968 92.1402 76.72 92.4842 76.224L93.5522 76.848C92.9602 77.72 92.0842 78.156 90.9242 78.156C89.9482 78.156 89.1602 77.86 88.5602 77.268C87.9602 76.668 87.6602 75.912 87.6602 75C87.6602 74.104 87.9562 73.356 88.5482 72.756C89.1402 72.148 89.9002 71.844 90.8282 71.844C91.7082 71.844 92.4282 72.152 92.9882 72.768C93.5562 73.384 93.8402 74.132 93.8402 75.012C93.8402 75.148 93.8242 75.328 93.7922 75.552H89.0162ZM89.0042 74.496H92.5322C92.4442 74.008 92.2402 73.64 91.9202 73.392C91.6082 73.144 91.2402 73.02 90.8162 73.02C90.3362 73.02 89.9362 73.152 89.6162 73.416C89.2962 73.68 89.0922 74.04 89.0042 74.496ZM98.1366 71.844C98.8246 71.844 99.3806 72.064 99.8046 72.504C100.229 72.944 100.441 73.548 100.441 74.316V78H99.1446V74.448C99.1446 74 99.0246 73.656 98.7846 73.416C98.5446 73.176 98.2166 73.056 97.8006 73.056C97.3446 73.056 96.9766 73.2 96.6966 73.488C96.4166 73.768 96.2766 74.2 96.2766 74.784V78H94.9806V72H96.2766V72.768C96.6686 72.152 97.2886 71.844 98.1366 71.844ZM103.132 73.008C103.46 72.264 104.076 71.892 104.98 71.892V73.296C104.484 73.264 104.052 73.384 103.684 73.656C103.316 73.92 103.132 74.36 103.132 74.976V78H101.836V72H103.132V73.008ZM106.676 75.552C106.772 76.008 106.992 76.36 107.336 76.608C107.68 76.848 108.1 76.968 108.596 76.968C109.284 76.968 109.8 76.72 110.144 76.224L111.212 76.848C110.62 77.72 109.744 78.156 108.584 78.156C107.608 78.156 106.82 77.86 106.22 77.268C105.62 76.668 105.32 75.912 105.32 75C105.32 74.104 105.616 73.356 106.208 72.756C106.8 72.148 107.56 71.844 108.488 71.844C109.368 71.844 110.088 72.152 110.648 72.768C111.216 73.384 111.5 74.132 111.5 75.012C111.5 75.148 111.484 75.328 111.452 75.552H106.676ZM106.664 74.496H110.192C110.104 74.008 109.9 73.64 109.58 73.392C109.268 73.144 108.9 73.02 108.476 73.02C107.996 73.02 107.596 73.152 107.276 73.416C106.956 73.68 106.752 74.04 106.664 74.496Z" fill="white"/>
<defs>
<linearGradient id="paint0_linear_1044_7315" x1="163.881" y1="17.4194" x2="-15.2267" y2="17.9718" gradientUnits="userSpaceOnUse">
<stop offset="0.0233996" stop-color="#CAFA00"/>
<stop offset="0.113936" stop-color="#CAFA00"/>
<stop offset="0.996231" stop-color="#CAFA00" stop-opacity="0"/>
</linearGradient>
</defs>
</svg>
