<svg width="24" height="28" viewBox="0 0 24 33" fill="none" xmlns="http://www.w3.org/2000/svg">
<path opacity="0.957" fill-rule="evenodd" clip-rule="evenodd" d="M10.7227 0C11.5741 0 12.4256 0 13.2771 0C18.0713 0.724369 21.4026 3.34547 23.2709 7.86328C24.4678 11.4021 24.1911 14.8181 22.4408 18.1113C19.0757 23.1009 15.6806 28.0638 12.2553 33C12.085 33 11.9148 33 11.7444 33C8.31919 28.0638 4.92408 23.1009 1.55899 18.1113C-0.581671 13.9499 -0.517812 9.82491 1.75056 5.73633C3.88127 2.46374 6.87196 0.55163 10.7227 0Z" fill="#020100"/>
<ellipse cx="12.1222" cy="11.8652" rx="10.2863" ry="10.382" fill="url(#paint0_linear_1044_7196)"/>
<path d="M20.4737 12.3468V12.547H20.6881L20.6735 12.3331L20.4737 12.3468ZM9.68982 12.3468L9.49818 12.2888L9.41995 12.547H9.68982V12.3468ZM3.67383 12.3562V12.1559H3.45942L3.47406 12.3698L3.67383 12.3562ZM9.70497 12.3562L9.89661 12.4142L9.97484 12.1559H9.70497V12.3562ZM20.6735 12.3331C20.588 11.0834 20.078 9.7197 19.311 8.56178C18.5447 7.40499 17.5073 6.43213 16.3491 5.98866C15.1784 5.54046 13.8959 5.63922 12.6877 6.60833C11.4921 7.56736 10.3832 9.36687 9.49818 12.2888L9.88146 12.4048C10.7562 9.51677 11.8337 7.80675 12.9383 6.92072C14.0304 6.04477 15.1618 5.96293 16.2059 6.36266C17.2622 6.76711 18.2403 7.67071 18.9771 8.78294C19.7131 9.89406 20.194 11.192 20.2739 12.3605L20.6735 12.3331ZM9.68982 12.547H20.4737V12.1466H9.68982V12.547ZM3.47406 12.3698C3.5231 13.0867 3.81472 13.8639 4.25054 14.5218C4.68561 15.1786 5.27882 15.7379 5.94908 15.9945C6.63169 16.2559 7.38224 16.1969 8.08353 15.6344C8.77227 15.0819 9.39941 14.0558 9.89661 12.4142L9.51333 12.2981C9.02637 13.9059 8.43067 14.8426 7.83295 15.322C7.24779 15.7914 6.64828 15.8334 6.09227 15.6205C5.52392 15.4029 4.98996 14.9128 4.5844 14.3006C4.17958 13.6895 3.91708 12.9781 3.8736 12.3425L3.47406 12.3698ZM9.70497 12.1559H3.67383V12.5564H9.70497V12.1559Z" fill="url(#paint1_linear_1044_7196)"/>
<defs>
<linearGradient id="paint0_linear_1044_7196" x1="1.83594" y1="1.48315" x2="25.7718" y2="12.5642" gradientUnits="userSpaceOnUse">
<stop stop-color="#A7A7A7" stop-opacity="0"/>
<stop offset="1" stop-color="#0A0A0A"/>
</linearGradient>
<linearGradient id="paint1_linear_1044_7196" x1="6.6926" y1="7.55188" x2="26.2849" y2="10.6212" gradientUnits="userSpaceOnUse">
<stop offset="0.0816154" stop-color="#CAFA00"/>
<stop offset="0.781614" stop-color="#CAFA00" stop-opacity="0"/>
</linearGradient>
</defs>
</svg>
