<svg width="78" height="47" viewBox="0 0 78 47" fill="none" xmlns="http://www.w3.org/2000/svg">
<path d="M76.0002 29.9934V31.0518H77.1341L77.056 29.9205L76.0002 29.9934ZM28.4998 29.9934L27.4876 29.684L27.0695 31.0518H28.4998V29.9934ZM2 30.0344V28.976H0.866002L0.94412 30.1073L2 30.0344ZM28.5658 30.0344L29.5779 30.3438L29.9961 28.976H28.5658V30.0344ZM77.056 29.9205C76.6767 24.4268 74.4163 18.4443 71.0232 13.3694C67.6337 8.29988 63.0378 4.02411 57.8921 2.07215C52.6831 0.0961934 46.9707 0.533383 41.5982 4.80303C36.2906 9.02111 31.3909 16.9155 27.4876 29.684L29.5119 30.3028C33.3597 17.7159 38.0909 10.2943 42.9152 6.46022C47.6747 2.67775 52.5952 2.3268 57.1413 4.05132C61.7508 5.79984 66.0323 9.71316 69.2635 14.546C72.4911 19.3734 74.5949 25.0065 74.9443 30.0663L77.056 29.9205ZM28.4998 31.0518H76.0002V28.935H28.4998V31.0518ZM0.94412 30.1073C1.16288 33.2754 2.46159 36.6983 4.39571 39.5911C6.32626 42.4785 8.96586 44.9497 11.9619 46.0862C15.0212 47.2467 18.3906 46.9832 21.5303 44.4879C24.6052 42.0442 27.3827 37.5249 29.5779 30.3438L27.5536 29.725C25.4139 36.7245 22.805 40.7711 20.2133 42.8308C17.6866 44.8388 15.1092 45.0161 12.7127 44.107C10.2529 43.174 7.92768 41.0652 6.15541 38.4145C4.38672 35.7692 3.24468 32.6957 3.05588 29.9615L0.94412 30.1073ZM28.5658 28.976H2V31.0928H28.5658V28.976Z" fill="url(#paint0_linear_1044_7273)"/>
<defs>
<linearGradient id="paint0_linear_1044_7273" x1="15.297" y1="9.06776" x2="101.558" y2="22.7073" gradientUnits="userSpaceOnUse">
<stop offset="0.0816154" stop-color="#CAFA00"/>
<stop offset="0.781614" stop-color="#CAFA00" stop-opacity="0"/>
</linearGradient>
</defs>
</svg>
