<svg width="25" height="24" viewBox="0 0 25 24" fill="none" xmlns="http://www.w3.org/2000/svg">
<g clip-path="url(#clip0_986_5350)">
<rect x="3.5" y="6" width="18" height="12" rx="2" stroke="#848484" stroke-width="2"/>
<path d="M8.5 18C8.5 15.3333 7.16667 14 4.5 14" stroke="#848484" stroke-width="2"/>
<path d="M4.5 10C7.16667 10 8.5 8.66667 8.5 6" stroke="#848484" stroke-width="2"/>
<path d="M16.5 6C16.5 8.66667 17.8333 10 20.5 10" stroke="#848484" stroke-width="2"/>
<path d="M20.5 14C17.8333 14 16.5 15.3333 16.5 18" stroke="#848484" stroke-width="2"/>
<path d="M14.5 12C14.5 13.1046 13.6046 14 12.5 14C11.3954 14 10.5 13.1046 10.5 12C10.5 10.8954 11.3954 10 12.5 10C13.6046 10 14.5 10.8954 14.5 12Z" stroke="#848484" stroke-width="2" stroke-linecap="round" stroke-linejoin="round"/>
</g>
<defs>
<clipPath id="clip0_986_5350">
<rect width="24" height="24" fill="white" transform="translate(0.5)"/>
</clipPath>
</defs>
</svg>
